<svg xmlns="http://www.w3.org/2000/svg" role="img" aria-labelledby="title desc" viewBox="0 0 450 450"><title id="title">Sakawi Google Play QR code</title><desc id="desc">QR code for https://play.google.com/store/apps/details?id=com.sakawi.cham&amp;hl=vi</desc><rect width="450" height="450" rx="24" fill="#ffffff"/><g fill="#1F2937"><rect x="40" y="40" width="10" height="10"/><rect x="50" y="40" width="10" height="10"/><rect x="60" y="40" width="10" height="10"/><rect x="70" y="40" width="10" height="10"/><rect x="80" y="40" width="10" height="10"/><rect x="90" y="40" width="10" height="10"/><rect x="100" y="40" width="10" height="10"/><rect x="120" y="40" width="10" height="10"/><rect x="130" y="40" width="10" height="10"/><rect x="190" y="40" width="10" height="10"/><rect x="200" y="40" width="10" height="10"/><rect x="220" y="40" width="10" height="10"/><rect x="240" y="40" width="10" height="10"/><rect x="250" y="40" width="10" height="10"/><rect x="260" y="40" width="10" height="10"/><rect x="270" y="40" width="10" height="10"/><rect x="300" y="40" width="10" height="10"/><rect x="320" y="40" width="10" height="10"/><rect x="340" y="40" width="10" height="10"/><rect x="350" y="40" width="10" height="10"/><rect x="360" y="40" width="10" height="10"/><rect x="370" y="40" width="10" height="10"/><rect x="380" y="40" width="10" height="10"/><rect x="390" y="40" width="10" height="10"/><rect x="400" y="40" width="10" height="10"/><rect x="40" y="50" width="10" height="10"/><rect x="100" y="50" width="10" height="10"/><rect x="120" y="50" width="10" height="10"/><rect x="130" y="50" width="10" height="10"/><rect x="150" y="50" width="10" height="10"/><rect x="160" y="50" width="10" height="10"/><rect x="220" y="50" width="10" height="10"/><rect x="230" y="50" width="10" height="10"/><rect x="280" y="50" width="10" height="10"/><rect x="310" y="50" width="10" height="10"/><rect x="340" y="50" width="10" height="10"/><rect x="400" y="50" width="10" height="10"/><rect x="40" y="60" width="10" height="10"/><rect x="60" y="60" width="10" height="10"/><rect x="70" y="60" width="10" height="10"/><rect x="80" y="60" width="10" height="10"/><rect x="100" y="60" width="10" height="10"/><rect x="120" y="60" width="10" height="10"/><rect x="130" y="60" width="10" height="10"/><rect x="140" y="60" width="10" height="10"/><rect x="150" y="60" width="10" height="10"/><rect x="180" y="60" width="10" height="10"/><rect x="200" y="60" width="10" height="10"/><rect x="230" y="60" width="10" height="10"/><rect x="240" y="60" width="10" height="10"/><rect x="250" y="60" width="10" height="10"/><rect x="260" y="60" width="10" height="10"/><rect x="270" y="60" width="10" height="10"/><rect x="310" y="60" width="10" height="10"/><rect x="340" y="60" width="10" height="10"/><rect x="360" y="60" width="10" height="10"/><rect x="370" y="60" width="10" height="10"/><rect x="380" y="60" width="10" height="10"/><rect x="400" y="60" width="10" height="10"/><rect x="40" y="70" width="10" height="10"/><rect x="60" y="70" width="10" height="10"/><rect x="70" y="70" width="10" height="10"/><rect x="80" y="70" width="10" height="10"/><rect x="100" y="70" width="10" height="10"/><rect x="120" y="70" width="10" height="10"/><rect x="130" y="70" width="10" height="10"/><rect x="150" y="70" width="10" height="10"/><rect x="200" y="70" width="10" height="10"/><rect x="220" y="70" width="10" height="10"/><rect x="230" y="70" width="10" height="10"/><rect x="260" y="70" width="10" height="10"/><rect x="270" y="70" width="10" height="10"/><rect x="280" y="70" width="10" height="10"/><rect x="290" y="70" width="10" height="10"/><rect x="300" y="70" width="10" height="10"/><rect x="310" y="70" width="10" height="10"/><rect x="320" y="70" width="10" height="10"/><rect x="340" y="70" width="10" height="10"/><rect x="360" y="70" width="10" height="10"/><rect x="370" y="70" width="10" height="10"/><rect x="380" y="70" width="10" height="10"/><rect x="400" y="70" width="10" height="10"/><rect x="40" y="80" width="10" height="10"/><rect x="60" y="80" width="10" height="10"/><rect x="70" y="80" width="10" height="10"/><rect x="80" y="80" width="10" height="10"/><rect x="100" y="80" width="10" height="10"/><rect x="120" y="80" width="10" height="10"/><rect x="140" y="80" width="10" height="10"/><rect x="160" y="80" width="10" height="10"/><rect x="170" y="80" width="10" height="10"/><rect x="180" y="80" width="10" height="10"/><rect x="190" y="80" width="10" height="10"/><rect x="210" y="80" width="10" height="10"/><rect x="250" y="80" width="10" height="10"/><rect x="270" y="80" width="10" height="10"/><rect x="280" y="80" width="10" height="10"/><rect x="300" y="80" width="10" height="10"/><rect x="320" y="80" width="10" height="10"/><rect x="340" y="80" width="10" height="10"/><rect x="360" y="80" width="10" height="10"/><rect x="370" y="80" width="10" height="10"/><rect x="380" y="80" width="10" height="10"/><rect x="400" y="80" width="10" height="10"/><rect x="40" y="90" width="10" height="10"/><rect x="100" y="90" width="10" height="10"/><rect x="140" y="90" width="10" height="10"/><rect x="170" y="90" width="10" height="10"/><rect x="180" y="90" width="10" height="10"/><rect x="190" y="90" width="10" height="10"/><rect x="200" y="90" width="10" height="10"/><rect x="210" y="90" width="10" height="10"/><rect x="240" y="90" width="10" height="10"/><rect x="250" y="90" width="10" height="10"/><rect x="290" y="90" width="10" height="10"/><rect x="310" y="90" width="10" height="10"/><rect x="320" y="90" width="10" height="10"/><rect x="340" y="90" width="10" height="10"/><rect x="400" y="90" width="10" height="10"/><rect x="40" y="100" width="10" height="10"/><rect x="50" y="100" width="10" height="10"/><rect x="60" y="100" width="10" height="10"/><rect x="70" y="100" width="10" height="10"/><rect x="80" y="100" width="10" height="10"/><rect x="90" y="100" width="10" height="10"/><rect x="100" y="100" width="10" height="10"/><rect x="120" y="100" width="10" height="10"/><rect x="140" y="100" width="10" height="10"/><rect x="160" y="100" width="10" height="10"/><rect x="180" y="100" width="10" height="10"/><rect x="200" y="100" width="10" height="10"/><rect x="220" y="100" width="10" height="10"/><rect x="240" y="100" width="10" height="10"/><rect x="260" y="100" width="10" height="10"/><rect x="280" y="100" width="10" height="10"/><rect x="300" y="100" width="10" height="10"/><rect x="320" y="100" width="10" height="10"/><rect x="340" y="100" width="10" height="10"/><rect x="350" y="100" width="10" height="10"/><rect x="360" y="100" width="10" height="10"/><rect x="370" y="100" width="10" height="10"/><rect x="380" y="100" width="10" height="10"/><rect x="390" y="100" width="10" height="10"/><rect x="400" y="100" width="10" height="10"/><rect x="120" y="110" width="10" height="10"/><rect x="160" y="110" width="10" height="10"/><rect x="170" y="110" width="10" height="10"/><rect x="190" y="110" width="10" height="10"/><rect x="210" y="110" width="10" height="10"/><rect x="220" y="110" width="10" height="10"/><rect x="250" y="110" width="10" height="10"/><rect x="260" y="110" width="10" height="10"/><rect x="300" y="110" width="10" height="10"/><rect x="310" y="110" width="10" height="10"/><rect x="50" y="120" width="10" height="10"/><rect x="70" y="120" width="10" height="10"/><rect x="90" y="120" width="10" height="10"/><rect x="100" y="120" width="10" height="10"/><rect x="120" y="120" width="10" height="10"/><rect x="130" y="120" width="10" height="10"/><rect x="140" y="120" width="10" height="10"/><rect x="160" y="120" width="10" height="10"/><rect x="180" y="120" width="10" height="10"/><rect x="190" y="120" width="10" height="10"/><rect x="230" y="120" width="10" height="10"/><rect x="260" y="120" width="10" height="10"/><rect x="270" y="120" width="10" height="10"/><rect x="280" y="120" width="10" height="10"/><rect x="290" y="120" width="10" height="10"/><rect x="310" y="120" width="10" height="10"/><rect x="340" y="120" width="10" height="10"/><rect x="360" y="120" width="10" height="10"/><rect x="370" y="120" width="10" height="10"/><rect x="380" y="120" width="10" height="10"/><rect x="390" y="120" width="10" height="10"/><rect x="400" y="120" width="10" height="10"/><rect x="40" y="130" width="10" height="10"/><rect x="50" y="130" width="10" height="10"/><rect x="80" y="130" width="10" height="10"/><rect x="90" y="130" width="10" height="10"/><rect x="130" y="130" width="10" height="10"/><rect x="190" y="130" width="10" height="10"/><rect x="200" y="130" width="10" height="10"/><rect x="220" y="130" width="10" height="10"/><rect x="230" y="130" width="10" height="10"/><rect x="240" y="130" width="10" height="10"/><rect x="270" y="130" width="10" height="10"/><rect x="290" y="130" width="10" height="10"/><rect x="320" y="130" width="10" height="10"/><rect x="350" y="130" width="10" height="10"/><rect x="370" y="130" width="10" height="10"/><rect x="380" y="130" width="10" height="10"/><rect x="390" y="130" width="10" height="10"/><rect x="40" y="140" width="10" height="10"/><rect x="60" y="140" width="10" height="10"/><rect x="90" y="140" width="10" height="10"/><rect x="100" y="140" width="10" height="10"/><rect x="110" y="140" width="10" height="10"/><rect x="130" y="140" width="10" height="10"/><rect x="150" y="140" width="10" height="10"/><rect x="160" y="140" width="10" height="10"/><rect x="220" y="140" width="10" height="10"/><rect x="290" y="140" width="10" height="10"/><rect x="300" y="140" width="10" height="10"/><rect x="310" y="140" width="10" height="10"/><rect x="320" y="140" width="10" height="10"/><rect x="330" y="140" width="10" height="10"/><rect x="340" y="140" width="10" height="10"/><rect x="370" y="140" width="10" height="10"/><rect x="380" y="140" width="10" height="10"/><rect x="400" y="140" width="10" height="10"/><rect x="40" y="150" width="10" height="10"/><rect x="50" y="150" width="10" height="10"/><rect x="60" y="150" width="10" height="10"/><rect x="80" y="150" width="10" height="10"/><rect x="110" y="150" width="10" height="10"/><rect x="130" y="150" width="10" height="10"/><rect x="150" y="150" width="10" height="10"/><rect x="180" y="150" width="10" height="10"/><rect x="200" y="150" width="10" height="10"/><rect x="230" y="150" width="10" height="10"/><rect x="240" y="150" width="10" height="10"/><rect x="250" y="150" width="10" height="10"/><rect x="260" y="150" width="10" height="10"/><rect x="270" y="150" width="10" height="10"/><rect x="300" y="150" width="10" height="10"/><rect x="320" y="150" width="10" height="10"/><rect x="330" y="150" width="10" height="10"/><rect x="340" y="150" width="10" height="10"/><rect x="350" y="150" width="10" height="10"/><rect x="360" y="150" width="10" height="10"/><rect x="370" y="150" width="10" height="10"/><rect x="390" y="150" width="10" height="10"/><rect x="80" y="160" width="10" height="10"/><rect x="100" y="160" width="10" height="10"/><rect x="110" y="160" width="10" height="10"/><rect x="120" y="160" width="10" height="10"/><rect x="150" y="160" width="10" height="10"/><rect x="200" y="160" width="10" height="10"/><rect x="220" y="160" width="10" height="10"/><rect x="240" y="160" width="10" height="10"/><rect x="260" y="160" width="10" height="10"/><rect x="270" y="160" width="10" height="10"/><rect x="280" y="160" width="10" height="10"/><rect x="290" y="160" width="10" height="10"/><rect x="300" y="160" width="10" height="10"/><rect x="340" y="160" width="10" height="10"/><rect x="360" y="160" width="10" height="10"/><rect x="370" y="160" width="10" height="10"/><rect x="380" y="160" width="10" height="10"/><rect x="400" y="160" width="10" height="10"/><rect x="50" y="170" width="10" height="10"/><rect x="60" y="170" width="10" height="10"/><rect x="70" y="170" width="10" height="10"/><rect x="80" y="170" width="10" height="10"/><rect x="90" y="170" width="10" height="10"/><rect x="120" y="170" width="10" height="10"/><rect x="130" y="170" width="10" height="10"/><rect x="140" y="170" width="10" height="10"/><rect x="160" y="170" width="10" height="10"/><rect x="170" y="170" width="10" height="10"/><rect x="180" y="170" width="10" height="10"/><rect x="190" y="170" width="10" height="10"/><rect x="210" y="170" width="10" height="10"/><rect x="230" y="170" width="10" height="10"/><rect x="240" y="170" width="10" height="10"/><rect x="250" y="170" width="10" height="10"/><rect x="270" y="170" width="10" height="10"/><rect x="350" y="170" width="10" height="10"/><rect x="380" y="170" width="10" height="10"/><rect x="390" y="170" width="10" height="10"/><rect x="40" y="180" width="10" height="10"/><rect x="50" y="180" width="10" height="10"/><rect x="60" y="180" width="10" height="10"/><rect x="90" y="180" width="10" height="10"/><rect x="100" y="180" width="10" height="10"/><rect x="110" y="180" width="10" height="10"/><rect x="170" y="180" width="10" height="10"/><rect x="180" y="180" width="10" height="10"/><rect x="190" y="180" width="10" height="10"/><rect x="200" y="180" width="10" height="10"/><rect x="210" y="180" width="10" height="10"/><rect x="240" y="180" width="10" height="10"/><rect x="250" y="180" width="10" height="10"/><rect x="300" y="180" width="10" height="10"/><rect x="310" y="180" width="10" height="10"/><rect x="320" y="180" width="10" height="10"/><rect x="330" y="180" width="10" height="10"/><rect x="350" y="180" width="10" height="10"/><rect x="360" y="180" width="10" height="10"/><rect x="380" y="180" width="10" height="10"/><rect x="390" y="180" width="10" height="10"/><rect x="400" y="180" width="10" height="10"/><rect x="40" y="190" width="10" height="10"/><rect x="60" y="190" width="10" height="10"/><rect x="110" y="190" width="10" height="10"/><rect x="140" y="190" width="10" height="10"/><rect x="160" y="190" width="10" height="10"/><rect x="170" y="190" width="10" height="10"/><rect x="190" y="190" width="10" height="10"/><rect x="210" y="190" width="10" height="10"/><rect x="220" y="190" width="10" height="10"/><rect x="240" y="190" width="10" height="10"/><rect x="250" y="190" width="10" height="10"/><rect x="260" y="190" width="10" height="10"/><rect x="270" y="190" width="10" height="10"/><rect x="280" y="190" width="10" height="10"/><rect x="310" y="190" width="10" height="10"/><rect x="320" y="190" width="10" height="10"/><rect x="350" y="190" width="10" height="10"/><rect x="370" y="190" width="10" height="10"/><rect x="400" y="190" width="10" height="10"/><rect x="40" y="200" width="10" height="10"/><rect x="60" y="200" width="10" height="10"/><rect x="80" y="200" width="10" height="10"/><rect x="100" y="200" width="10" height="10"/><rect x="110" y="200" width="10" height="10"/><rect x="130" y="200" width="10" height="10"/><rect x="140" y="200" width="10" height="10"/><rect x="160" y="200" width="10" height="10"/><rect x="180" y="200" width="10" height="10"/><rect x="190" y="200" width="10" height="10"/><rect x="230" y="200" width="10" height="10"/><rect x="240" y="200" width="10" height="10"/><rect x="260" y="200" width="10" height="10"/><rect x="280" y="200" width="10" height="10"/><rect x="290" y="200" width="10" height="10"/><rect x="300" y="200" width="10" height="10"/><rect x="310" y="200" width="10" height="10"/><rect x="330" y="200" width="10" height="10"/><rect x="340" y="200" width="10" height="10"/><rect x="360" y="200" width="10" height="10"/><rect x="370" y="200" width="10" height="10"/><rect x="380" y="200" width="10" height="10"/><rect x="400" y="200" width="10" height="10"/><rect x="50" y="210" width="10" height="10"/><rect x="80" y="210" width="10" height="10"/><rect x="140" y="210" width="10" height="10"/><rect x="190" y="210" width="10" height="10"/><rect x="200" y="210" width="10" height="10"/><rect x="220" y="210" width="10" height="10"/><rect x="230" y="210" width="10" height="10"/><rect x="250" y="210" width="10" height="10"/><rect x="260" y="210" width="10" height="10"/><rect x="270" y="210" width="10" height="10"/><rect x="320" y="210" width="10" height="10"/><rect x="350" y="210" width="10" height="10"/><rect x="380" y="210" width="10" height="10"/><rect x="390" y="210" width="10" height="10"/><rect x="60" y="220" width="10" height="10"/><rect x="70" y="220" width="10" height="10"/><rect x="80" y="220" width="10" height="10"/><rect x="90" y="220" width="10" height="10"/><rect x="100" y="220" width="10" height="10"/><rect x="110" y="220" width="10" height="10"/><rect x="120" y="220" width="10" height="10"/><rect x="140" y="220" width="10" height="10"/><rect x="150" y="220" width="10" height="10"/><rect x="160" y="220" width="10" height="10"/><rect x="220" y="220" width="10" height="10"/><rect x="260" y="220" width="10" height="10"/><rect x="300" y="220" width="10" height="10"/><rect x="310" y="220" width="10" height="10"/><rect x="340" y="220" width="10" height="10"/><rect x="350" y="220" width="10" height="10"/><rect x="360" y="220" width="10" height="10"/><rect x="380" y="220" width="10" height="10"/><rect x="390" y="220" width="10" height="10"/><rect x="400" y="220" width="10" height="10"/><rect x="40" y="230" width="10" height="10"/><rect x="60" y="230" width="10" height="10"/><rect x="70" y="230" width="10" height="10"/><rect x="80" y="230" width="10" height="10"/><rect x="110" y="230" width="10" height="10"/><rect x="120" y="230" width="10" height="10"/><rect x="150" y="230" width="10" height="10"/><rect x="180" y="230" width="10" height="10"/><rect x="200" y="230" width="10" height="10"/><rect x="240" y="230" width="10" height="10"/><rect x="250" y="230" width="10" height="10"/><rect x="260" y="230" width="10" height="10"/><rect x="300" y="230" width="10" height="10"/><rect x="330" y="230" width="10" height="10"/><rect x="350" y="230" width="10" height="10"/><rect x="360" y="230" width="10" height="10"/><rect x="400" y="230" width="10" height="10"/><rect x="40" y="240" width="10" height="10"/><rect x="50" y="240" width="10" height="10"/><rect x="60" y="240" width="10" height="10"/><rect x="80" y="240" width="10" height="10"/><rect x="100" y="240" width="10" height="10"/><rect x="120" y="240" width="10" height="10"/><rect x="150" y="240" width="10" height="10"/><rect x="200" y="240" width="10" height="10"/><rect x="220" y="240" width="10" height="10"/><rect x="230" y="240" width="10" height="10"/><rect x="260" y="240" width="10" height="10"/><rect x="270" y="240" width="10" height="10"/><rect x="290" y="240" width="10" height="10"/><rect x="300" y="240" width="10" height="10"/><rect x="310" y="240" width="10" height="10"/><rect x="320" y="240" width="10" height="10"/><rect x="330" y="240" width="10" height="10"/><rect x="340" y="240" width="10" height="10"/><rect x="360" y="240" width="10" height="10"/><rect x="380" y="240" width="10" height="10"/><rect x="390" y="240" width="10" height="10"/><rect x="400" y="240" width="10" height="10"/><rect x="40" y="250" width="10" height="10"/><rect x="60" y="250" width="10" height="10"/><rect x="70" y="250" width="10" height="10"/><rect x="90" y="250" width="10" height="10"/><rect x="110" y="250" width="10" height="10"/><rect x="120" y="250" width="10" height="10"/><rect x="160" y="250" width="10" height="10"/><rect x="170" y="250" width="10" height="10"/><rect x="180" y="250" width="10" height="10"/><rect x="190" y="250" width="10" height="10"/><rect x="210" y="250" width="10" height="10"/><rect x="230" y="250" width="10" height="10"/><rect x="240" y="250" width="10" height="10"/><rect x="270" y="250" width="10" height="10"/><rect x="280" y="250" width="10" height="10"/><rect x="300" y="250" width="10" height="10"/><rect x="320" y="250" width="10" height="10"/><rect x="350" y="250" width="10" height="10"/><rect x="370" y="250" width="10" height="10"/><rect x="390" y="250" width="10" height="10"/><rect x="70" y="260" width="10" height="10"/><rect x="90" y="260" width="10" height="10"/><rect x="100" y="260" width="10" height="10"/><rect x="110" y="260" width="10" height="10"/><rect x="140" y="260" width="10" height="10"/><rect x="170" y="260" width="10" height="10"/><rect x="180" y="260" width="10" height="10"/><rect x="190" y="260" width="10" height="10"/><rect x="200" y="260" width="10" height="10"/><rect x="210" y="260" width="10" height="10"/><rect x="250" y="260" width="10" height="10"/><rect x="280" y="260" width="10" height="10"/><rect x="300" y="260" width="10" height="10"/><rect x="310" y="260" width="10" height="10"/><rect x="320" y="260" width="10" height="10"/><rect x="330" y="260" width="10" height="10"/><rect x="350" y="260" width="10" height="10"/><rect x="360" y="260" width="10" height="10"/><rect x="370" y="260" width="10" height="10"/><rect x="390" y="260" width="10" height="10"/><rect x="400" y="260" width="10" height="10"/><rect x="70" y="270" width="10" height="10"/><rect x="80" y="270" width="10" height="10"/><rect x="90" y="270" width="10" height="10"/><rect x="120" y="270" width="10" height="10"/><rect x="160" y="270" width="10" height="10"/><rect x="170" y="270" width="10" height="10"/><rect x="190" y="270" width="10" height="10"/><rect x="210" y="270" width="10" height="10"/><rect x="220" y="270" width="10" height="10"/><rect x="250" y="270" width="10" height="10"/><rect x="260" y="270" width="10" height="10"/><rect x="320" y="270" width="10" height="10"/><rect x="330" y="270" width="10" height="10"/><rect x="350" y="270" width="10" height="10"/><rect x="360" y="270" width="10" height="10"/><rect x="400" y="270" width="10" height="10"/><rect x="60" y="280" width="10" height="10"/><rect x="80" y="280" width="10" height="10"/><rect x="100" y="280" width="10" height="10"/><rect x="130" y="280" width="10" height="10"/><rect x="140" y="280" width="10" height="10"/><rect x="160" y="280" width="10" height="10"/><rect x="180" y="280" width="10" height="10"/><rect x="190" y="280" width="10" height="10"/><rect x="230" y="280" width="10" height="10"/><rect x="280" y="280" width="10" height="10"/><rect x="290" y="280" width="10" height="10"/><rect x="300" y="280" width="10" height="10"/><rect x="330" y="280" width="10" height="10"/><rect x="340" y="280" width="10" height="10"/><rect x="360" y="280" width="10" height="10"/><rect x="370" y="280" width="10" height="10"/><rect x="380" y="280" width="10" height="10"/><rect x="390" y="280" width="10" height="10"/><rect x="400" y="280" width="10" height="10"/><rect x="40" y="290" width="10" height="10"/><rect x="50" y="290" width="10" height="10"/><rect x="60" y="290" width="10" height="10"/><rect x="80" y="290" width="10" height="10"/><rect x="140" y="290" width="10" height="10"/><rect x="190" y="290" width="10" height="10"/><rect x="200" y="290" width="10" height="10"/><rect x="220" y="290" width="10" height="10"/><rect x="230" y="290" width="10" height="10"/><rect x="240" y="290" width="10" height="10"/><rect x="270" y="290" width="10" height="10"/><rect x="320" y="290" width="10" height="10"/><rect x="350" y="290" width="10" height="10"/><rect x="380" y="290" width="10" height="10"/><rect x="390" y="290" width="10" height="10"/><rect x="40" y="300" width="10" height="10"/><rect x="80" y="300" width="10" height="10"/><rect x="90" y="300" width="10" height="10"/><rect x="100" y="300" width="10" height="10"/><rect x="110" y="300" width="10" height="10"/><rect x="120" y="300" width="10" height="10"/><rect x="130" y="300" width="10" height="10"/><rect x="150" y="300" width="10" height="10"/><rect x="160" y="300" width="10" height="10"/><rect x="220" y="300" width="10" height="10"/><rect x="260" y="300" width="10" height="10"/><rect x="310" y="300" width="10" height="10"/><rect x="330" y="300" width="10" height="10"/><rect x="350" y="300" width="10" height="10"/><rect x="360" y="300" width="10" height="10"/><rect x="370" y="300" width="10" height="10"/><rect x="390" y="300" width="10" height="10"/><rect x="400" y="300" width="10" height="10"/><rect x="40" y="310" width="10" height="10"/><rect x="60" y="310" width="10" height="10"/><rect x="120" y="310" width="10" height="10"/><rect x="140" y="310" width="10" height="10"/><rect x="150" y="310" width="10" height="10"/><rect x="180" y="310" width="10" height="10"/><rect x="200" y="310" width="10" height="10"/><rect x="230" y="310" width="10" height="10"/><rect x="240" y="310" width="10" height="10"/><rect x="250" y="310" width="10" height="10"/><rect x="280" y="310" width="10" height="10"/><rect x="300" y="310" width="10" height="10"/><rect x="310" y="310" width="10" height="10"/><rect x="320" y="310" width="10" height="10"/><rect x="330" y="310" width="10" height="10"/><rect x="340" y="310" width="10" height="10"/><rect x="350" y="310" width="10" height="10"/><rect x="400" y="310" width="10" height="10"/><rect x="40" y="320" width="10" height="10"/><rect x="70" y="320" width="10" height="10"/><rect x="90" y="320" width="10" height="10"/><rect x="100" y="320" width="10" height="10"/><rect x="110" y="320" width="10" height="10"/><rect x="140" y="320" width="10" height="10"/><rect x="150" y="320" width="10" height="10"/><rect x="200" y="320" width="10" height="10"/><rect x="220" y="320" width="10" height="10"/><rect x="260" y="320" width="10" height="10"/><rect x="270" y="320" width="10" height="10"/><rect x="280" y="320" width="10" height="10"/><rect x="290" y="320" width="10" height="10"/><rect x="300" y="320" width="10" height="10"/><rect x="310" y="320" width="10" height="10"/><rect x="320" y="320" width="10" height="10"/><rect x="330" y="320" width="10" height="10"/><rect x="340" y="320" width="10" height="10"/><rect x="350" y="320" width="10" height="10"/><rect x="360" y="320" width="10" height="10"/><rect x="370" y="320" width="10" height="10"/><rect x="380" y="320" width="10" height="10"/><rect x="120" y="330" width="10" height="10"/><rect x="130" y="330" width="10" height="10"/><rect x="160" y="330" width="10" height="10"/><rect x="170" y="330" width="10" height="10"/><rect x="180" y="330" width="10" height="10"/><rect x="190" y="330" width="10" height="10"/><rect x="210" y="330" width="10" height="10"/><rect x="230" y="330" width="10" height="10"/><rect x="250" y="330" width="10" height="10"/><rect x="270" y="330" width="10" height="10"/><rect x="290" y="330" width="10" height="10"/><rect x="320" y="330" width="10" height="10"/><rect x="360" y="330" width="10" height="10"/><rect x="370" y="330" width="10" height="10"/><rect x="40" y="340" width="10" height="10"/><rect x="50" y="340" width="10" height="10"/><rect x="60" y="340" width="10" height="10"/><rect x="70" y="340" width="10" height="10"/><rect x="80" y="340" width="10" height="10"/><rect x="90" y="340" width="10" height="10"/><rect x="100" y="340" width="10" height="10"/><rect x="170" y="340" width="10" height="10"/><rect x="180" y="340" width="10" height="10"/><rect x="190" y="340" width="10" height="10"/><rect x="200" y="340" width="10" height="10"/><rect x="210" y="340" width="10" height="10"/><rect x="240" y="340" width="10" height="10"/><rect x="320" y="340" width="10" height="10"/><rect x="340" y="340" width="10" height="10"/><rect x="360" y="340" width="10" height="10"/><rect x="390" y="340" width="10" height="10"/><rect x="400" y="340" width="10" height="10"/><rect x="40" y="350" width="10" height="10"/><rect x="100" y="350" width="10" height="10"/><rect x="120" y="350" width="10" height="10"/><rect x="140" y="350" width="10" height="10"/><rect x="160" y="350" width="10" height="10"/><rect x="170" y="350" width="10" height="10"/><rect x="190" y="350" width="10" height="10"/><rect x="210" y="350" width="10" height="10"/><rect x="220" y="350" width="10" height="10"/><rect x="240" y="350" width="10" height="10"/><rect x="250" y="350" width="10" height="10"/><rect x="260" y="350" width="10" height="10"/><rect x="270" y="350" width="10" height="10"/><rect x="300" y="350" width="10" height="10"/><rect x="320" y="350" width="10" height="10"/><rect x="360" y="350" width="10" height="10"/><rect x="390" y="350" width="10" height="10"/><rect x="40" y="360" width="10" height="10"/><rect x="60" y="360" width="10" height="10"/><rect x="70" y="360" width="10" height="10"/><rect x="80" y="360" width="10" height="10"/><rect x="100" y="360" width="10" height="10"/><rect x="140" y="360" width="10" height="10"/><rect x="160" y="360" width="10" height="10"/><rect x="180" y="360" width="10" height="10"/><rect x="190" y="360" width="10" height="10"/><rect x="230" y="360" width="10" height="10"/><rect x="260" y="360" width="10" height="10"/><rect x="270" y="360" width="10" height="10"/><rect x="290" y="360" width="10" height="10"/><rect x="300" y="360" width="10" height="10"/><rect x="310" y="360" width="10" height="10"/><rect x="320" y="360" width="10" height="10"/><rect x="330" y="360" width="10" height="10"/><rect x="340" y="360" width="10" height="10"/><rect x="350" y="360" width="10" height="10"/><rect x="360" y="360" width="10" height="10"/><rect x="380" y="360" width="10" height="10"/><rect x="400" y="360" width="10" height="10"/><rect x="40" y="370" width="10" height="10"/><rect x="60" y="370" width="10" height="10"/><rect x="70" y="370" width="10" height="10"/><rect x="80" y="370" width="10" height="10"/><rect x="100" y="370" width="10" height="10"/><rect x="120" y="370" width="10" height="10"/><rect x="190" y="370" width="10" height="10"/><rect x="200" y="370" width="10" height="10"/><rect x="220" y="370" width="10" height="10"/><rect x="230" y="370" width="10" height="10"/><rect x="240" y="370" width="10" height="10"/><rect x="270" y="370" width="10" height="10"/><rect x="280" y="370" width="10" height="10"/><rect x="290" y="370" width="10" height="10"/><rect x="320" y="370" width="10" height="10"/><rect x="340" y="370" width="10" height="10"/><rect x="360" y="370" width="10" height="10"/><rect x="370" y="370" width="10" height="10"/><rect x="380" y="370" width="10" height="10"/><rect x="400" y="370" width="10" height="10"/><rect x="40" y="380" width="10" height="10"/><rect x="60" y="380" width="10" height="10"/><rect x="70" y="380" width="10" height="10"/><rect x="80" y="380" width="10" height="10"/><rect x="100" y="380" width="10" height="10"/><rect x="140" y="380" width="10" height="10"/><rect x="150" y="380" width="10" height="10"/><rect x="160" y="380" width="10" height="10"/><rect x="220" y="380" width="10" height="10"/><rect x="240" y="380" width="10" height="10"/><rect x="250" y="380" width="10" height="10"/><rect x="300" y="380" width="10" height="10"/><rect x="310" y="380" width="10" height="10"/><rect x="350" y="380" width="10" height="10"/><rect x="390" y="380" width="10" height="10"/><rect x="400" y="380" width="10" height="10"/><rect x="40" y="390" width="10" height="10"/><rect x="100" y="390" width="10" height="10"/><rect x="120" y="390" width="10" height="10"/><rect x="150" y="390" width="10" height="10"/><rect x="180" y="390" width="10" height="10"/><rect x="200" y="390" width="10" height="10"/><rect x="250" y="390" width="10" height="10"/><rect x="270" y="390" width="10" height="10"/><rect x="280" y="390" width="10" height="10"/><rect x="320" y="390" width="10" height="10"/><rect x="330" y="390" width="10" height="10"/><rect x="360" y="390" width="10" height="10"/><rect x="370" y="390" width="10" height="10"/><rect x="400" y="390" width="10" height="10"/><rect x="40" y="400" width="10" height="10"/><rect x="50" y="400" width="10" height="10"/><rect x="60" y="400" width="10" height="10"/><rect x="70" y="400" width="10" height="10"/><rect x="80" y="400" width="10" height="10"/><rect x="90" y="400" width="10" height="10"/><rect x="100" y="400" width="10" height="10"/><rect x="140" y="400" width="10" height="10"/><rect x="150" y="400" width="10" height="10"/><rect x="200" y="400" width="10" height="10"/><rect x="220" y="400" width="10" height="10"/><rect x="260" y="400" width="10" height="10"/><rect x="290" y="400" width="10" height="10"/><rect x="300" y="400" width="10" height="10"/><rect x="330" y="400" width="10" height="10"/><rect x="350" y="400" width="10" height="10"/><rect x="360" y="400" width="10" height="10"/><rect x="370" y="400" width="10" height="10"/><rect x="380" y="400" width="10" height="10"/><rect x="390" y="400" width="10" height="10"/><rect x="400" y="400" width="10" height="10"/></g></svg>
